<?xml version="1.0" encoding="utf-8"?>
<!-- Generator: Adobe Illustrator 19.0.0, SVG Export Plug-In . SVG Version: 6.00 Build 0)  -->
<svg version="1.1" id="Layer_1" xmlns="http://www.w3.org/2000/svg" xmlns:xlink="http://www.w3.org/1999/xlink" x="0px" y="0px"
	 viewBox="0 0 683 334" style="enable-background:new 0 0 683 334;" xml:space="preserve">
<style type="text/css">
	.st0{clip-path:url(#XMLID_2_);}
	.st1{fill:#F7F7F7;}
	.st2{fill:#F1F1F1;}
	.st3{fill:#E8E8E8;}
	.st4{fill:#FFFFFF;}
	.st5{fill:#F9F9F9;}
	.st6{fill:#C5C5C5;}
	.st7{fill:#A2A2A2;}
	.st8{fill:#A8A8A8;}
</style>
<g id="XMLID_70_">
	<defs>
		<rect id="XMLID_69_" width="683" height="334"/>
	</defs>
	<clipPath id="XMLID_2_">
		<use xlink:href="#XMLID_69_"  style="overflow:visible;"/>
	</clipPath>
	<g id="XMLID_73_" class="st0">
		<path id="XMLID_250_" class="st1" d="M878.6-55.8l-84.1-114.3c0,3.1,65.9,90.5,84.1,114.5V-55.8z"/>
		<path id="XMLID_249_" class="st2" d="M878.6,403.4c-33.7-21.4-84.1-53.3-84.1-52.8v0.8l84.1,52.4V403.4z"/>
		<path id="XMLID_248_" class="st2" d="M878.6,133.4l-84.1,53.3c0,0,41.1-25.5,84.1-52.4V133.4z"/>
		<path id="XMLID_247_" class="st1" d="M878.6-140.2c-42.6-15.9-84.1-31.1-84.1-29.9l84.1,30.8V-140.2z"/>
		<polygon id="XMLID_246_" class="st2" points="878.6,66.3 794.5,62.6 878.6,67 		"/>
		<polygon id="XMLID_245_" class="st3" points="862.8,535.3 849.8,548.4 849.7,548.4 850.1,548.7 849.2,549 849.1,549.1 849,549.1
			833.4,554.3 878.6,554.3 878.6,535.7 878.6,519.7 878.6,519.5 		"/>
		<polygon id="XMLID_244_" class="st3" points="878.6,430.3 794.5,453.3 728.8,470.8 794.5,483.7 878.6,500.3 		"/>
		<polygon id="XMLID_243_" class="st3" points="849.1,549.1 849.2,549 849,549.1 		"/>
		<polygon id="XMLID_242_" class="st4" points="878.6,500.3 794.5,483.7 728.8,470.8 728.6,470.9 750.7,485.2 794.5,513.1
			849.7,548.4 849.8,548.4 862.8,535.3 878.6,519.5 		"/>
		<path id="XMLID_241_" class="st2" d="M878.6,351.6l-84.1-1c0-0.5,50.4,31.4,84.1,52.8V351.6z"/>
		<polygon id="XMLID_240_" class="st4" points="878.6,329.7 794.5,291 794.5,350.6 878.6,351.6 		"/>
		<polygon id="XMLID_239_" class="st4" points="878.6,285 794.5,291 878.6,329.7 		"/>
		<polygon id="XMLID_238_" class="st4" points="878.6,226.7 794.5,186.7 794.5,291 878.6,285 		"/>
		<path id="XMLID_237_" class="st4" d="M878.6,134.3c-43,26.9-84.1,52.4-84.1,52.4l84.1,39.9V134.3z"/>
		<polygon id="XMLID_236_" class="st2" points="878.6,67 794.5,62.6 794.5,186.7 878.6,133.4 		"/>
		<polygon id="XMLID_235_" class="st1" points="878.6,-43.8 794.5,62.6 878.6,66.3 		"/>
		<polygon id="XMLID_234_" class="st1" points="878.6,-139.3 794.5,-170.1 878.6,-55.8 		"/>
		<path id="XMLID_233_" class="st3" d="M878-254h-60.6h-23v83.9c0-1.2,41.5,14,84.1,29.9v-54.5v-58.5L878-254z"/>
		<polyline id="XMLID_232_" class="st4" points="678.5,606.9 794.5,567.5 795.1,567.3 832.8,554.5 833.4,554.3 849,549.1 849.2,549
			850.1,548.7 849.7,548.4 794.5,513.1 750.7,485.2 		"/>
		<polyline id="XMLID_231_" class="st4" points="750.7,485.2 728.4,471 727.9,471.1 728.1,470.8 727.5,470.4 727.5,470.5 629,407.5
			666.5,554.3 665.5,554.5 665.5,554.5 678.5,606.9 		"/>
		<polygon id="XMLID_230_" class="st4" points="832.8,554.5 833.5,554.3 833.4,554.3 		"/>
		<polygon id="XMLID_229_" class="st4" points="851,554.3 851,554.3 833.5,554.3 832.8,554.5 795.1,567.3 794.5,567.5 794.5,622.7
			829.5,622.7 878.6,622.7 878.6,622.6 878.6,620.8 878.6,554.3 		"/>
		<path id="XMLID_228_" class="st4" d="M-240.6,93.7v0.1l32,4.6C-208.7,98.4-221.6,96.5-240.6,93.7z"/>
		<path id="XMLID_227_" class="st3" d="M37.4-254c19.1,51.3,37.2,99.4,37.2,99.4L37.7-254H37.4z"/>
		<path id="XMLID_226_" class="st4" d="M128.3,401L26.8,324C27.6,325.8,128.3,401,128.3,401z"/>
		<polygon id="XMLID_225_" class="st4" points="365.4,370.5 251.1,376.5 478,365.2 		"/>
		<polygon id="XMLID_224_" class="st4" points="728.4,471 750.7,485.2 728.6,470.9 		"/>
		<polygon id="XMLID_223_" class="st4" points="728.8,373.5 629,407.5 794.5,351.4 		"/>
		<polygon id="XMLID_222_" class="st4" points="-157.5,455.7 -139.3,536 -171.1,389.6 		"/>
		<polygon id="XMLID_221_" class="st4" points="465.2,295.3 365.4,370.5 549.7,232.7 		"/>
		<path id="XMLID_220_" class="st4" d="M428.5,426l-177.4-49.5c0,0,0,0,0.1,0C254.4,378.7,428.5,426,428.5,426z"/>
		<path id="XMLID_219_" class="st1" d="M629,407.5c0,0,56.3-100.8,56.3-101.5L629,407.5z"/>
		<path id="XMLID_218_" class="st4" d="M560.3,495.6c-8.7-4.6-132.5-70.7-131.7-69.6L560.3,495.6z"/>
		<path id="XMLID_217_" class="st3" d="M251.1,376.5l28.6,24.2C263.5,386.9,252.1,377.3,251.1,376.5
			C251.1,376.5,251.1,376.5,251.1,376.5z"/>
		<path id="XMLID_216_" class="st3" d="M298.1,294.6l65.3-123.8h0C362.2,172.9,300.2,290.6,298.1,294.6z"/>
		<polygon id="XMLID_215_" class="st2" points="-68.8,-228.6 204.2,-86.6 74.5,-154.6 		"/>
		<path id="XMLID_214_" class="st4" d="M-13.3,195.6L-94,156.2l0.1,0.1c42.1,21.1,79.7,40,79.7,40L-13.3,195.6z"/>
		<polygon id="XMLID_213_" class="st5" points="-208.7,98.4 -234.7,238.9 -218.9,155.7 		"/>
		<path id="XMLID_212_" class="st4" d="M-208.7,98.4c1,0.7,36.5,18.6,77,38.9L-208.7,98.4z"/>
		<path id="XMLID_211_" class="st1" d="M711.8-151.4l-74.3,14.7L453.3-96.1C453.3-96.1,610.8-130.3,711.8-151.4z"/>
		<path id="XMLID_210_" class="st3" d="M560.6,495.1c-2-7.8-25.4-80.5-25.4-80.5L560.6,495.1L560.6,495.1z"/>
		<polygon id="XMLID_209_" class="st4" points="-240.6,542.6 -157.5,455.7 -216.6,516.1 -240.6,542.2 		"/>
		<path id="XMLID_208_" class="st4" d="M394.7,36.8C405,53.6,549.7,232.7,549.7,232.7L394.1,35.6l0.2,0.4
			C394.4,36.2,394.6,36.5,394.7,36.8z"/>
		<polygon id="XMLID_207_" class="st1" points="-17.9,554.3 -7,579.4 -7,579.4 -17.7,554.3 -59.7,456.5 -38.1,508.2 		"/>
		<path id="XMLID_206_" class="st3" d="M685.3,306.1l-135.6-73.4C553.4,235.3,685.3,306.1,685.3,306.1z"/>
		<path id="XMLID_205_" class="st4" d="M-92.2-130.1l-10.6,44.7l0.9,0.7C-100.4-92.4-96.6-109.8-92.2-130.1z"/>
		<polygon id="XMLID_204_" class="st5" points="128,84.9 363.4,170.8 231.5,122.3 		"/>
		<polygon id="XMLID_203_" class="st4" points="363.4,170.8 549.7,232.7 476,208.2 		"/>
		<polygon id="XMLID_202_" class="st4" points="492.5,34 453.3,-96.1 549.7,232.7 		"/>
		<polygon id="XMLID_201_" class="st3" points="282.7,451.1 327,554.3 251.1,376.5 		"/>
		<path id="XMLID_200_" class="st4" d="M155.3,502.3l-7.8-29.3c4,15.2,7.2,27.2,7.7,29.3L155.3,502.3z"/>
		<polygon id="XMLID_199_" class="st4" points="727.5,470.4 728.1,470.8 794.5,351.4 		"/>
		<polygon id="XMLID_198_" class="st4" points="23,7.5 128,84.9 23.4,7.7 		"/>
		<polygon id="XMLID_197_" class="st1" points="-65.3,256 -14.2,196.3 -109.7,305.5 		"/>
		<path id="XMLID_196_" class="st4" d="M665.5,554.5l1.1-0.1L629,407.5c0,0-68.2,90.1-68.2,88.3"/>
		<polyline id="XMLID_195_" class="st4" points="560.7,495.9 514.6,554.3 497.6,575.8 665.5,554.5 		"/>
		<path id="XMLID_194_" class="st4" d="M560.7,495.9c0-0.1-0.1-0.3-0.2-0.7l-0.1,0.1L560.7,495.9z"/>
		<polygon id="XMLID_193_" class="st4" points="560.3,495.6 428.5,426 414,514.9 560.7,495.9 		"/>
		<polygon id="XMLID_192_" class="st1" points="560.7,495.9 414,514.9 468.1,554.3 497.6,575.8 514.6,554.3 		"/>
		<path id="XMLID_191_" class="st4" d="M251.2,376.5c0.9,0.7,12.3,10.3,28.6,24.1l41.3,34.9c0,0,92.1,78.2,93,79.4l14.5-88.9
			C428.5,426,254.4,378.7,251.2,376.5z"/>
		<path id="XMLID_190_" class="st4" d="M321.1,435.6l6,118.7l87-39.4C413.2,513.8,321.1,435.6,321.1,435.6z"/>
		<polygon id="XMLID_189_" class="st3" points="279.7,400.7 251.1,376.5 327,554.3 321.1,435.6 		"/>
		<polygon id="XMLID_188_" class="st1" points="197.3,554.3 176,580 327,554.3 282.7,451.1 		"/>
		<path id="XMLID_187_" class="st4" d="M147.5,473l7.8,29.3l0.3,0.1l13.7,51.9L176,580l21.2-25.7l85.4-103.2L128.3,401
			C128.3,400.2,139.5,442.7,147.5,473z"/>
		<polygon id="XMLID_186_" class="st2" points="282.7,451.1 251.1,376.5 128.3,401 		"/>
		<path id="XMLID_185_" class="st4" d="M147.5,473c-8-30.3-19.2-72.8-19.2-72l-67.4,70.4l94.3,30.9
			C154.7,500.2,151.5,488.1,147.5,473z"/>
		<polygon id="XMLID_184_" class="st4" points="155.6,502.4 155.3,502.3 155.2,502.3 60.9,471.4 148.8,554.3 176,580 169.3,554.3
			"/>
		<path id="XMLID_183_" class="st4" d="M26.8,324l34.1,147.4l67.4-70.4C128.3,401,27.6,325.8,26.8,324z"/>
		<polygon id="XMLID_182_" class="st4" points="-59.7,456.5 60.9,471.4 26.8,324 		"/>
		<polygon id="XMLID_181_" class="st1" points="60.9,471.4 -59.7,456.5 -17.7,554.3 -7,579.4 -6.9,579.5 -6.5,580.6 9.7,554.3 		"/>
		<polygon id="XMLID_180_" class="st1" points="-59.7,456.5 -139.3,536 -38.1,508.2 		"/>
		<polygon id="XMLID_179_" class="st4" points="-171.1,389.6 -139.3,536 -59.7,456.5 		"/>
		<polygon id="XMLID_178_" class="st4" points="-41.5,347.3 -171.1,389.6 -59.7,456.5 26.8,324 		"/>
		<polygon id="XMLID_177_" class="st4" points="-240.6,552.5 -139.3,536 -157.5,455.7 -240.6,542.6 		"/>
		<polygon id="XMLID_176_" class="st4" points="-240.6,408.3 -157.5,455.7 -171.1,389.6 -240.6,379 		"/>
		<polygon id="XMLID_175_" class="st4" points="-240.6,408.3 -240.6,478.2 -216.6,516.1 -157.5,455.7 		"/>
		<polygon id="XMLID_174_" class="st4" points="-240.6,478.2 -240.6,542.2 -216.6,516.1 		"/>
		<polygon id="XMLID_173_" class="st4" points="794.5,351.4 728.1,470.8 727.9,471.1 728.4,471 728.6,470.9 728.8,470.8
			794.5,453.3 878.6,430.3 878.6,403.8 		"/>
		<polygon id="XMLID_172_" class="st4" points="629,407.5 727.5,470.5 727.5,470.4 794.5,351.4 		"/>
		<polygon id="XMLID_171_" class="st5" points="128.3,401 136,280.4 26.8,324 		"/>
		<path id="XMLID_170_" class="st4" d="M-109.7,305.5l-41.8-25.7c0.9,1.6-19.6,109.8-19.6,109.8l129.6-42.4L26.8,324L-109.7,305.5z"
			/>
		<polygon id="XMLID_169_" class="st1" points="128.3,401 251.1,376.5 136,280.4 		"/>
		<path id="XMLID_168_" class="st1" d="M560.3,495.6l0.5,0.3l-0.2-0.6l-25.4-80.5L428.5,426C427.7,424.9,551.6,491,560.3,495.6z"/>
		<path id="XMLID_167_" class="st3" d="M560.6,495.1c0.1,0.4,0.2,0.6,0.2,0.7c0,1.8,68.2-88.3,68.2-88.3l-93.8,7.2
			C535.2,414.7,558.6,487.3,560.6,495.1z"/>
		<path id="XMLID_166_" class="st4" d="M685.3,306.1c0,0.6-56.3,101.5-56.3,101.5l99.8-34L685.3,306.1z"/>
		<polygon id="XMLID_165_" class="st3" points="794.5,351.4 685.3,306.1 728.8,373.5 		"/>
		<polygon id="XMLID_164_" class="st4" points="794.5,351.4 794.5,350.6 794.5,291.2 685.3,306.1 794.5,351.4 		"/>
		<polygon id="XMLID_163_" class="st1" points="622.2,352 535.2,414.7 629,407.5 685.3,306.1 		"/>
		<polygon id="XMLID_162_" class="st4" points="428.5,426 535.2,414.7 478,365.2 		"/>
		<polygon id="XMLID_161_" class="st4" points="478,365.2 251.1,376.5 428.5,426 		"/>
		<polygon id="XMLID_160_" class="st2" points="535.2,414.7 622.2,352 478,365.2 		"/>
		<polygon id="XMLID_159_" class="st1" points="478,365.2 622.2,352 549.7,232.7 		"/>
		<polygon id="XMLID_158_" class="st4" points="365.4,370.5 478,365.2 549.7,232.7 		"/>
		<polygon id="XMLID_157_" class="st4" points="298,294.7 251.1,376.5 365.4,370.5 		"/>
		<polygon id="XMLID_156_" class="st1" points="298,294.7 365.4,370.5 465.2,295.3 		"/>
		<polygon id="XMLID_155_" class="st2" points="136,280.4 251.1,376.5 298,294.7 		"/>
		<path id="XMLID_154_" class="st2" d="M622.2,352l63.1-46c0,0-131.9-70.8-135.6-73.4L622.2,352z"/>
		<path id="XMLID_153_" class="st3" d="M685.3,306.1c0,0,13.6-155.2,13.6-157.5l-149.3,84.1L685.3,306.1z"/>
		<path id="XMLID_152_" class="st1" d="M685.3,306.1l109.2-120.1l-95.5-37.4C698.9,150.9,685.3,306.1,685.3,306.1z"/>
		<polygon id="XMLID_151_" class="st4" points="794.5,291.2 794.5,291 794.5,186.7 794.5,185.9 685.3,306.1 		"/>
		<polygon id="XMLID_150_" class="st5" points="-240.6,352.1 -240.6,379 -171.1,389.6 		"/>
		<path id="XMLID_149_" class="st4" d="M-151.5,279.8l-89.1-0.9v73.3l69.5,37.5C-171.1,389.6-150.6,281.4-151.5,279.8z"/>
		<polygon id="XMLID_148_" class="st3" points="-240.6,278.9 -151.5,279.8 -234.8,239.2 -240.6,236.4 		"/>
		<polygon id="XMLID_147_" class="st4" points="-240.6,93.8 -240.6,110.3 -208.7,98.4 		"/>
		<polygon id="XMLID_146_" class="st5" points="-240.6,110.3 -240.6,236.4 -234.8,239.2 -234.7,238.9 -208.7,98.4 		"/>
		<polygon id="XMLID_145_" class="st4" points="-234.8,239.2 -151.5,279.8 -14.2,196.3 		"/>
		<polygon id="XMLID_144_" class="st4" points="-218.9,155.7 -234.7,238.9 -234.8,239.2 -14.2,196.3 		"/>
		<path id="XMLID_143_" class="st4" d="M-14.2,196.3c0,0-37.6-18.8-79.7-40l0.1,0.2l-37.9-19.2c-40.4-20.3-76-38.2-77-38.9
			l-10.2,57.3L-14.2,196.3z"/>
		<path id="XMLID_142_" class="st4" d="M794.5,185.9V63.4c0,0.8-95.5,85.1-95.5,85.1L794.5,185.9z"/>
		<path id="XMLID_141_" class="st4" d="M-240.6,93.7c19,2.8,32,4.8,32,4.8l-2.3-136.8L-240.6-20V93.7z"/>
		<polygon id="XMLID_140_" class="st1" points="-14.2,196.3 -65.3,256 -109.7,305.5 -14.2,196.3 -151.5,279.8 -109.7,305.5
			26.8,324 		"/>
		<path id="XMLID_139_" class="st4" d="M363.4,170.8l-65.3,123.8c0,0.1,0,0.1,0,0.1l167.2,0.6l84.4-62.7L363.4,170.8z"/>
		<polygon id="XMLID_138_" class="st4" points="698.9,148.5 654.6,17.2 549.7,232.7 		"/>
		<polygon id="XMLID_137_" class="st4" points="84.8,119.1 -11.9,196.3 -13.3,195.6 -14.2,196.3 26.8,324 128,84.9 		"/>
		<path id="XMLID_136_" class="st6" d="M394.3,36l0.4,0.8c0,0,0,0,0,0C394.6,36.5,394.4,36.2,394.3,36z"/>
		<polygon id="XMLID_135_" class="st4" points="-131.7,137.3 -93.8,156.5 -93.9,156.3 -94,156.2 -94.9,155.7 -142.1,79.3
			-210.9,-38.4 -208.7,98.4 		"/>
		<polygon id="XMLID_134_" class="st4" points="-11.9,196.3 84.8,119.1 -94.9,155.7 -94,156.2 -13.3,195.6 		"/>
		<polygon id="XMLID_133_" class="st4" points="26.8,324 136,280.4 128,84.9 		"/>
		<path id="XMLID_132_" class="st3" d="M363.4,170.8L136,280.4L298,294.7c0,0,0,0,0-0.1C300.2,290.6,362.2,172.9,363.4,170.8z"/>
		<path id="XMLID_131_" class="st4" d="M394.3,36l-0.2-0.4c0,0.1,0.2,0.6,0.6,1.2L394.3,36z"/>
		<path id="XMLID_130_" class="st4" d="M394.7,36.8C394.7,36.8,394.7,36.8,394.7,36.8c-0.4-0.7-0.6-1.1-0.6-1.2l-30.7,135.2
			c0,0,0,0,0,0L476,208.2l73.6,24.5C549.7,232.7,405,53.6,394.7,36.8z"/>
		<path id="XMLID_129_" class="st4" d="M698.9,148.5c0,0,95.5-84.3,95.5-85.1L654.6,17.2L698.9,148.5z"/>
		<polygon id="XMLID_128_" class="st2" points="-240.6,-39.7 -240.6,-20 -210.9,-38.4 		"/>
		<polyline id="XMLID_127_" class="st4" points="-210.9,-38.4 -142.1,79.3 -102.9,-85.4 		"/>
		<path id="XMLID_126_" class="st4" d="M-102.9-85.4l10.6-44.7c8.6-39.7,19.8-90,22.8-97.7L-210.9-38.4"/>
		<polygon id="XMLID_125_" class="st5" points="363.4,170.8 363.4,170.8 128,84.9 136,280.4 363.4,170.8 		"/>
		<polygon id="XMLID_124_" class="st4" points="549.7,232.7 453.3,-96.1 394.1,35.6 		"/>
		<path id="XMLID_123_" class="st4" d="M794.5,63.4v-0.8V-167c-4.6,12.7-139.9,184.2-139.9,184.2L794.5,63.4z"/>
		<polygon id="XMLID_122_" class="st1" points="-142.1,79.3 -94.9,155.7 84.8,119.1 		"/>
		<polygon id="XMLID_121_" class="st4" points="128,84.9 -142.1,79.3 84.8,119.1 		"/>
		<polygon id="XMLID_120_" class="st4" points="549.7,232.7 654.6,17.2 492.5,34 		"/>
		<polygon id="XMLID_119_" class="st4" points="-240.6,-49.3 -240.6,-39.7 -210.9,-38.4 		"/>
		<path id="XMLID_118_" class="st4" d="M363.4,170.8L363.4,170.8C363.4,170.8,363.4,170.8,363.4,170.8l30.7-135.3l-162.6,86.7
			L363.4,170.8z"/>
		<polygon id="XMLID_117_" class="st5" points="-240.6,-170.7 -240.6,-49.3 -210.9,-38.4 		"/>
		<polyline id="XMLID_116_" class="st4" points="-142.1,79.3 128,84.9 23,7.5 		"/>
		<path id="XMLID_115_" class="st4" d="M23,7.5l-125.9-88.1c0,0,0.3-1.5,0.9-4.1l-0.9-0.7l-39.2,164.7"/>
		<polygon id="XMLID_114_" class="st4" points="654.6,17.2 453.3,-96.1 492.5,34 		"/>
		<path id="XMLID_113_" class="st1" d="M453.3-96.1L654.6,17.2c0,0,135.3-171.5,139.9-184.2v-0.8l-82.6,16.3
			C610.8-130.3,453.3-96.1,453.3-96.1z"/>
		<path id="XMLID_112_" class="st4" d="M-240.6-253.3v82.6l29.7,132.3l141.5-189.3c0.2-0.5,0.3-0.8,0.5-0.9L-240.6-253.3z"/>
		<polygon id="XMLID_111_" class="st4" points="394.1,35.6 204.2,-86.6 128,84.9 		"/>
		<polygon id="XMLID_110_" class="st4" points="231.5,122.3 394.1,35.6 128,84.9 		"/>
		<polygon id="XMLID_109_" class="st4" points="394.1,35.6 453.3,-96.1 204.2,-86.6 		"/>
		<path id="XMLID_108_" class="st1" d="M-95.5-254h-145.2v0.7L-69-228.7c0,0,0.1-0.1,0.1-0.1L-95.5-254z"/>
		<path id="XMLID_107_" class="st4" d="M794.5-254h-55.5l55.5,86.2V62.6l84.1-106.4v-11.9c-18.2-24-84.1-111.4-84.1-114.5V-254z"/>
		<polygon id="XMLID_106_" class="st4" points="128,84.9 204.2,-86.6 23.4,7.7 		"/>
		<polygon id="XMLID_105_" class="st4" points="482.1,-254 453.3,-96.1 637.5,-136.7 496.5,-254 		"/>
		<polygon id="XMLID_104_" class="st4" points="496.5,-254 637.5,-136.7 711.8,-151.4 794.5,-167.8 517.5,-254 		"/>
		<path id="XMLID_103_" class="st4" d="M-102.9-80.6L23,7.5l0.3,0.2l-92.1-236.3l-0.1-0.1c0,0-0.1,0-0.1,0.1
			c-0.1,0.1-0.3,0.4-0.5,0.9c-3,7.7-14.2,58-22.8,97.7c-4.4,20.2-8.1,37.7-9.8,45.3C-102.6-82.1-102.9-80.6-102.9-80.6z"/>
		<path id="XMLID_102_" class="st3" d="M-95.5-254l26.6,25.3l0.1,0.1c0,0,4.2-10.3,10.5-25.4H-95.5z"/>
		<polyline id="XMLID_101_" class="st4" points="23.4,7.7 204.2,-86.6 74.2,-154.2 		"/>
		<polyline id="XMLID_100_" class="st5" points="74.2,-154.2 -68.8,-228.6 23.4,7.7 		"/>
		<polygon id="XMLID_99_" class="st4" points="517.5,-254 794.5,-167.8 738.9,-254 		"/>
		<polygon id="XMLID_98_" class="st2" points="317.1,-254 74.5,-154.6 204.2,-86.6 328.8,-254 		"/>
		<polygon id="XMLID_97_" class="st3" points="37.7,-254 74.5,-154.6 317.1,-254 		"/>
		<polygon id="XMLID_96_" class="st5" points="328.8,-254 204.2,-86.6 453.3,-96.1 338.8,-254 		"/>
		<polygon id="XMLID_95_" class="st4" points="338.8,-254 453.3,-96.1 482.1,-254 		"/>
		<path id="XMLID_94_" class="st4" d="M-58.3-254c-6.2,15.1-10.5,25.4-10.5,25.4l143.3,74c0,0-18-48.1-37.2-99.4H-58.3z"/>
		<polygon id="XMLID_93_" class="st3" points="116.1,580.2 178.6,580.6 327,554.3 176,580 		"/>
		<polygon id="XMLID_92_" class="st1" points="665.5,554.5 497.6,575.8 327,554.3 497.6,578.2 665.5,554.5 		"/>
		<path id="XMLID_91_" class="st7" d="M8.7,622.7l-15.6-42.1l-0.1,0c1.4,4.3,7.3,20.4,15.3,42.1H8.7z"/>
		<polygon id="XMLID_90_" class="st1" points="-240.6,562.8 -240.6,622.7 -177.7,622.7 		"/>
		<polygon id="XMLID_89_" class="st4" points="794.5,622.7 794.5,567.5 678.5,606.9 688.6,622.7 		"/>
		<path id="XMLID_88_" class="st1" d="M-240.6,555.5v7.3l62.9,59.8h151.8c8.7-21,15.9-37.9,18-42.2L-240.6,555.5z"/>
		<polygon id="XMLID_87_" class="st3" points="330.4,622.7 327,554.3 178.6,580.6 236.2,622.7 		"/>
		<polygon id="XMLID_86_" class="st4" points="688.6,622.7 678.5,606.9 641.7,622.7 		"/>
		<polygon id="XMLID_85_" class="st1" points="497.6,578.2 678.5,606.9 665.5,554.5 		"/>
		<polygon id="XMLID_84_" class="st4" points="-7,579.5 -6.9,579.5 -7,579.4 -7,579.4 		"/>
		<polygon id="XMLID_83_" class="st4" points="236.2,622.7 178.6,580.6 116.1,580.2 -3.8,580.6 121.5,622.7 		"/>
		<polygon id="XMLID_82_" class="st1" points="434.7,622.7 497.6,578.2 327,554.3 330.4,622.7 		"/>
		<polygon id="XMLID_81_" class="st1" points="121.5,622.7 -3.8,580.6 -6.5,580.6 -6.9,580.5 8.7,622.7 		"/>
		<polygon id="XMLID_80_" class="st8" points="-7,579.5 -6.5,580.6 -6.9,579.5 		"/>
		<polygon id="XMLID_79_" class="st3" points="641.7,622.7 678.5,606.9 497.6,578.2 492.2,622.7 		"/>
		<polygon id="XMLID_78_" class="st4" points="492.2,622.7 497.6,578.2 434.7,622.7 		"/>
		<polygon id="XMLID_77_" class="st3" points="468.1,554.3 414,514.9 327,554.3 497.6,575.8 		"/>
		<polygon id="XMLID_76_" class="st4" points="148.8,554.3 60.9,471.4 9.7,554.3 -6.5,580.6 -3.8,580.6 116.1,580.2 176,580 		"/>
		<polygon id="XMLID_75_" class="st4" points="-7,579.4 -17.9,554.3 -38.1,508.2 -139.3,536 -84.7,554.3 -6.5,580.6 -7,579.5 		"/>
		<path id="XMLID_74_" class="st4" d="M8.3,622.7c-8-21.7-13.9-37.8-15.3-42.1l0.1,0l0.4,0l-78.3-26.3l-54.5-18.3l-101.4,16.5v3
			l232.7,24.9c-2,4.3-9.2,21.3-18,42.2H8.3z"/>
	</g>
</g>
</svg>
