<?xml version="1.0" encoding="utf-8"?>
<!-- Generator: Adobe Illustrator 19.0.0, SVG Export Plug-In . SVG Version: 6.00 Build 0)  -->
<svg version="1.1" id="Layer_1" xmlns="http://www.w3.org/2000/svg" xmlns:xlink="http://www.w3.org/1999/xlink" x="0px" y="0px"
	 viewBox="0 0 150 8" style="enable-background:new 0 0 150 8;" xml:space="preserve">
<style type="text/css">
	.st0{fill:none;stroke:#575B5C;stroke-width:2;stroke-miterlimit:10;}
</style>
<g id="XMLID_75_">
	<path id="XMLID_64_" class="st0" d="M0,1c4.2,0,4.2,6,8.3,6c4.2,0,4.2-6,8.3-6c4.2,0,4.2,6,8.3,6c4.2,0,4.2-6,8.3-6
		c4.2,0,4.2,6,8.3,6c4.2,0,4.2-6,8.3-6c4.2,0,4.2,6,8.3,6c4.2,0,4.2-6,8.3-6c4.2,0,4.2,6,8.3,6c4.2,0,4.2-6,8.3-6c4.2,0,4.2,6,8.3,6
		c4.2,0,4.2-6,8.3-6c4.2,0,4.2,6,8.3,6c4.2,0,4.2-6,8.3-6c4.2,0,4.2,6,8.3,6c4.2,0,4.2-6,8.3-6c4.2,0,4.2,6,8.3,6c4.2,0,4.2-6,8.3-6
		"/>
</g>
</svg>
