<?xml version="1.0" encoding="utf-8"?>
<!-- Generator: Adobe Illustrator 19.0.0, SVG Export Plug-In . SVG Version: 6.00 Build 0)  -->
<svg version="1.1" id="Layer_1" xmlns="http://www.w3.org/2000/svg" xmlns:xlink="http://www.w3.org/1999/xlink" x="0px" y="0px"
	 viewBox="0 0 40 40" style="enable-background:new 0 0 40 40;" xml:space="preserve">
<style type="text/css">
	.st0{fill:#FFFFFF;}
	.st1{fill:#67717D;}
</style>
<circle id="XMLID_74_" class="st0" cx="20" cy="20" r="20"/>
<g id="XMLID_24_">
	<polygon id="XMLID_73_" class="st1" points="8.7,9.7 11.6,9.7 11.6,23.2 20,18.3 28.4,23.2 28.4,9.7 31.3,9.7 31.3,28.1 20,21.6 
		8.7,28.1 	"/>
	<polygon id="XMLID_72_" class="st1" points="8.7,9.7 11.6,9.7 11.6,23.2 20,18.3 28.4,23.2 28.4,9.7 31.3,9.7 31.3,28.1 20,21.6 
		8.7,28.1 	"/>
	<polygon id="XMLID_71_" class="st1" points="13.2,11.6 16.1,11.6 16.1,18.9 13.2,20.6 	"/>
	<polygon id="XMLID_70_" class="st1" points="23.7,18.9 23.7,11.6 26.5,11.6 26.5,20.6 	"/>
	<polygon id="XMLID_69_" class="st1" points="23.7,31.9 23.7,25.6 26.5,27.2 26.5,31.9 	"/>
	<polygon id="XMLID_43_" class="st1" points="13.2,31.9 13.2,27.2 16.1,25.6 16.1,31.9 	"/>
</g>
</svg>
