<?xml version="1.0" encoding="utf-8"?>
<!-- Generator: Adobe Illustrator 19.0.0, SVG Export Plug-In . SVG Version: 6.00 Build 0)  -->
<svg version="1.1" id="Layer_1" xmlns="http://www.w3.org/2000/svg" xmlns:xlink="http://www.w3.org/1999/xlink" x="0px" y="0px"
	 viewBox="0 0 1366 300" style="enable-background:new 0 0 1366 300;" xml:space="preserve">
<style type="text/css">
	.st0{clip-path:url(#XMLID_194_);}
	.st1{fill:#F7F7F7;}
	.st2{fill:#F1F1F1;}
	.st3{fill:#E8E8E8;}
	.st4{fill:#FFFFFF;}
	.st5{fill:#F9F9F9;}
	.st6{fill:#C5C5C5;}
	.st7{fill:#A2A2A2;}
	.st8{fill:#A8A8A8;}
</style>
<g id="XMLID_192_">
	<defs>
		<rect id="XMLID_191_" y="0" width="1366" height="300"/>
	</defs>
	<clipPath id="XMLID_194_">
		<use xlink:href="#XMLID_191_"  style="overflow:visible;"/>
	</clipPath>
	<g class="st0">
		<path id="XMLID_190_" class="st1" d="M1489.9-394.4l-117-174.1c0,4.7,91.7,137.8,117,174.4V-394.4z"/>
		<path id="XMLID_189_" class="st2" d="M1489.9,305.1c-46.9-32.6-117-81.2-117-80.4v1.2l117,79.8V305.1z"/>
		<path id="XMLID_188_" class="st2" d="M1489.9-106.1l-117,81.2c0,0,57.2-38.8,117-79.9V-106.1z"/>
		<path id="XMLID_187_" class="st1" d="M1489.9-522.9c-59.3-24.2-117-47.4-117-45.6l117,46.9V-522.9z"/>
		<polygon id="XMLID_186_" class="st2" points="1489.9,-208.4 1372.9,-214 1489.9,-207.3 		"/>
		<polygon id="XMLID_185_" class="st3" points="1468,506 1449.8,525.9 1449.8,526 1450.3,526.4 1449,526.8 1448.8,527 1448.7,527
			1427,535 1489.9,535 1489.9,506.6 1489.9,482.2 1489.9,481.9 		"/>
		<polygon id="XMLID_184_" class="st3" points="1489.9,346.1 1372.9,381.1 1281.5,407.8 1372.9,427.5 1489.9,452.7 		"/>
		<polygon id="XMLID_183_" class="st3" points="1448.8,527 1449,526.8 1448.7,527 		"/>
		<polygon id="XMLID_182_" class="st4" points="1489.9,452.7 1372.9,427.5 1281.5,407.8 1281.3,407.9 1312,429.7 1372.9,472.2
			1449.8,526 1449.8,525.9 1468,506 1489.9,481.9 		"/>
		<path id="XMLID_181_" class="st2" d="M1489.9,226.3l-117-1.5c0-0.8,70.1,47.8,117,80.4V226.3z"/>
		<polygon id="XMLID_180_" class="st4" points="1489.9,192.8 1372.9,133.8 1372.9,224.7 1489.9,226.3 		"/>
		<polygon id="XMLID_179_" class="st4" points="1489.9,124.7 1372.9,133.8 1489.9,192.8 		"/>
		<polygon id="XMLID_178_" class="st4" points="1489.9,35.9 1372.9,-25 1372.9,133.8 1489.9,124.7 		"/>
		<path id="XMLID_177_" class="st4" d="M1489.9-104.8c-59.8,41-117,79.9-117,79.9l117,60.8V-104.8z"/>
		<polygon id="XMLID_176_" class="st2" points="1489.9,-207.3 1372.9,-214 1372.9,-25 1489.9,-106.1 		"/>
		<polygon id="XMLID_175_" class="st1" points="1489.9,-376.1 1372.9,-214 1489.9,-208.4 		"/>
		<polygon id="XMLID_174_" class="st1" points="1489.9,-521.6 1372.9,-568.5 1489.9,-394.4 		"/>
		<path id="XMLID_173_" class="st3" d="M1489.2-696.3h-84.3h-32v127.7c0-1.8,57.7,21.4,117,45.6v-82.9V-695L1489.2-696.3z"/>
		<polyline id="XMLID_172_" class="st4" points="1211.5,615 1372.9,555.1 1373.8,554.8 1426.2,535.3 1427,535 1448.7,527
			1449,526.8 1450.3,526.4 1449.8,526 1372.9,472.2 1312,429.7 		"/>
		<polyline id="XMLID_171_" class="st4" points="1312,429.7 1280.9,408 1280.3,408.2 1280.5,407.7 1279.8,407.2 1279.7,407.3
			1142.6,311.4 1194.9,535 1193.4,535.2 1193.4,535.2 1211.5,615 		"/>
		<polygon id="XMLID_170_" class="st4" points="1426.2,535.3 1427.1,535 1427,535 		"/>
		<polygon id="XMLID_169_" class="st4" points="1451.6,535 1451.5,535 1427.1,535 1426.2,535.3 1373.8,554.8 1372.9,555.1
			1372.9,639.1 1421.6,639.1 1489.9,639.1 1489.9,638.9 1489.9,636.2 1489.9,535 		"/>
		<path id="XMLID_168_" class="st4" d="M-67.3-166.7v0.2l44.5,7.1C-22.7-159.5-40.8-162.4-67.3-166.7z"/>
		<path id="XMLID_167_" class="st3" d="M319.6-696.3c26.6,78.1,51.7,151.4,51.7,151.4L320-696.3H319.6z"/>
		<path id="XMLID_166_" class="st4" d="M446,301.4L304.8,184.1C306,186.9,446,301.4,446,301.4z"/>
		<polygon id="XMLID_165_" class="st4" points="775.9,255 616.9,264.1 932.6,246.8 		"/>
		<polygon id="XMLID_164_" class="st4" points="1280.9,408 1312,429.7 1281.3,407.9 		"/>
		<polygon id="XMLID_163_" class="st4" points="1281.5,259.6 1142.6,311.4 1372.9,225.9 		"/>
		<polygon id="XMLID_162_" class="st4" points="48.5,384.7 73.8,507.1 29.5,284.1 		"/>
		<polygon id="XMLID_161_" class="st4" points="914.8,140.5 775.9,255 1032.3,45 		"/>
		<path id="XMLID_160_" class="st4" d="M863.8,339.6l-246.8-75.4c0,0,0,0,0.1,0C621.5,267.5,863.8,339.6,863.8,339.6z"/>
		<path id="XMLID_159_" class="st1" d="M1142.6,311.4c0,0,78.3-153.6,78.3-154.5L1142.6,311.4z"/>
		<path id="XMLID_158_" class="st4" d="M1047,445.5c-12.1-7.1-184.4-107.7-183.3-105.9L1047,445.5z"/>
		<path id="XMLID_157_" class="st3" d="M616.9,264.1l39.8,36.8C634.1,279.9,618.3,265.3,616.9,264.1
			C616.9,264.1,616.9,264.1,616.9,264.1z"/>
		<path id="XMLID_156_" class="st3" d="M682.3,139.4l90.9-188.6h0C771.5-46.1,685.2,133.3,682.3,139.4z"/>
		<polygon id="XMLID_155_" class="st2" points="171.9,-657.6 551.6,-441.3 371.3,-544.9 		"/>
		<path id="XMLID_154_" class="st4" d="M249.1-11.4L136.8-71.5l0.1,0.2c58.6,32.2,110.9,60.9,110.9,60.9L249.1-11.4z"/>
		<polygon id="XMLID_153_" class="st5" points="-22.7,-159.5 -59,54.5 -37,-72.2 		"/>
		<path id="XMLID_152_" class="st4" d="M-22.7-159.5c1.4,1,50.8,28.3,107.1,59.3L-22.7-159.5z"/>
		<path id="XMLID_151_" class="st1" d="M1257.9-540l-103.4,22.4l-256.3,61.8C898.2-455.8,1117.4-507.8,1257.9-540z"/>
		<path id="XMLID_150_" class="st3" d="M1047.5,444.8c-2.8-11.9-35.4-122.5-35.4-122.5L1047.5,444.8L1047.5,444.8z"/>
		<polygon id="XMLID_149_" class="st4" points="-67.3,517.1 48.5,384.7 -33.8,476.8 -67.3,516.5 		"/>
		<path id="XMLID_148_" class="st4" d="M816.7-253.3C831-227.8,1032.3,45,1032.3,45L815.9-255.2l0.3,0.7
			C816.3-254.2,816.5-253.8,816.7-253.3z"/>
		<polygon id="XMLID_147_" class="st1" points="242.6,535 257.8,573.2 257.8,573.2 242.9,535 184.5,385.9 214.6,464.7 		"/>
		<path id="XMLID_146_" class="st3" d="M1221,156.8L1032.3,45C1037.4,49,1221,156.8,1221,156.8z"/>
		<path id="XMLID_145_" class="st4" d="M139.2-507.5l-14.8,68l1.2,1C127.9-450.1,133.1-476.7,139.2-507.5z"/>
		<polygon id="XMLID_144_" class="st5" points="445.6,-180.1 773.2,-49.2 589.6,-123.1 		"/>
		<polygon id="XMLID_143_" class="st4" points="773.2,-49.2 1032.3,45 929.8,7.8 		"/>
		<polygon id="XMLID_142_" class="st4" points="952.8,-257.7 898.2,-455.8 1032.3,45 		"/>
		<polygon id="XMLID_141_" class="st3" points="660.8,377.7 722.5,535 616.9,264.1 		"/>
		<path id="XMLID_140_" class="st4" d="M483.7,455.8l-10.9-44.7c5.5,23.1,10,41.5,10.7,44.6L483.7,455.8z"/>
		<polygon id="XMLID_139_" class="st4" points="1279.8,407.2 1280.5,407.7 1372.9,225.9 		"/>
		<polygon id="XMLID_138_" class="st4" points="299.6,-298 445.6,-180.1 300.1,-297.6 		"/>
		<polygon id="XMLID_137_" class="st1" points="176.6,80.5 247.8,-10.4 115,155.9 		"/>
		<path id="XMLID_136_" class="st4" d="M1193.4,535.2l1.5-0.2l-52.2-223.6c0,0-94.9,137.3-94.9,134.5"/>
		<polyline id="XMLID_135_" class="st4" points="1047.7,445.9 983.5,535 959.9,567.7 1193.4,535.2 		"/>
		<path id="XMLID_134_" class="st4" d="M1047.7,445.9c0-0.1-0.1-0.5-0.2-1.1l-0.1,0.1L1047.7,445.9z"/>
		<polygon id="XMLID_133_" class="st4" points="1047,445.5 863.8,339.6 843.6,475 1047.7,445.9 		"/>
		<polygon id="XMLID_132_" class="st1" points="1047.7,445.9 843.6,475 918.8,535 959.9,567.7 983.5,535 		"/>
		<path id="XMLID_131_" class="st4" d="M617,264.2c1.3,1.1,17.1,15.7,39.7,36.8l57.5,53.2c0,0,128.2,119.1,129.4,120.9l20.2-135.4
			C863.8,339.6,621.5,267.5,617,264.2z"/>
		<path id="XMLID_130_" class="st4" d="M714.2,354.1l8.3,180.9l121-60C842.4,473.2,714.2,354.1,714.2,354.1z"/>
		<polygon id="XMLID_129_" class="st3" points="656.7,300.9 616.9,264.1 722.5,535 714.2,354.1 		"/>
		<polygon id="XMLID_128_" class="st1" points="542,535 512.5,574.1 722.5,535 660.8,377.7 		"/>
		<path id="XMLID_127_" class="st4" d="M472.8,411.1l10.9,44.7l0.3,0.1l19.1,79.1l9.4,39.1L542,535l118.8-157.2L446,301.4
			C446,300.2,461.7,365,472.8,411.1z"/>
		<polygon id="XMLID_126_" class="st2" points="660.8,377.7 616.9,264.1 446,301.4 		"/>
		<path id="XMLID_125_" class="st4" d="M472.8,411.1C461.7,365,446,300.2,446,301.4l-93.8,107.3l131.2,47.1
			C482.7,452.6,478.3,434.2,472.8,411.1z"/>
		<polygon id="XMLID_124_" class="st4" points="484,455.9 483.7,455.8 483.5,455.7 352.3,408.6 474.6,535 512.5,574.1 503.1,535
			"/>
		<path id="XMLID_123_" class="st4" d="M304.8,184.1l47.5,224.5L446,301.4C446,301.4,306,186.9,304.8,184.1z"/>
		<polygon id="XMLID_122_" class="st4" points="184.5,385.9 352.3,408.6 304.8,184.1 		"/>
		<polygon id="XMLID_121_" class="st1" points="352.3,408.6 184.5,385.9 242.9,535 257.8,573.2 257.9,573.4 258.5,575 281.1,535
			"/>
		<polygon id="XMLID_120_" class="st1" points="184.5,385.9 73.8,507.1 214.6,464.7 		"/>
		<polygon id="XMLID_119_" class="st4" points="29.5,284.1 73.8,507.1 184.5,385.9 		"/>
		<polygon id="XMLID_118_" class="st4" points="209.9,219.6 29.5,284.1 184.5,385.9 304.8,184.1 		"/>
		<polygon id="XMLID_117_" class="st4" points="-67.3,532.2 73.8,507.1 48.5,384.7 -67.3,517.1 		"/>
		<polygon id="XMLID_116_" class="st4" points="-67.3,312.5 48.5,384.7 29.5,284.1 -67.3,267.8 		"/>
		<polygon id="XMLID_115_" class="st4" points="-67.3,312.5 -67.3,419 -33.8,476.8 48.5,384.7 		"/>
		<polygon id="XMLID_114_" class="st4" points="-67.3,419 -67.3,516.5 -33.8,476.8 		"/>
		<polygon id="XMLID_113_" class="st4" points="1372.9,225.9 1280.5,407.7 1280.3,408.2 1280.9,408 1281.3,407.9 1281.5,407.8
			1372.9,381.1 1489.9,346.1 1489.9,305.7 		"/>
		<polygon id="XMLID_112_" class="st4" points="1142.6,311.4 1279.7,407.3 1279.8,407.2 1372.9,225.9 		"/>
		<polygon id="XMLID_111_" class="st5" points="446,301.4 456.7,117.8 304.8,184.1 		"/>
		<path id="XMLID_110_" class="st4" d="M114.9,155.9l-58.1-39.1c1.2,2.4-27.3,167.3-27.3,167.3l180.4-64.5l95-35.4L114.9,155.9z"/>
		<polygon id="XMLID_109_" class="st1" points="446,301.4 616.9,264.1 456.7,117.8 		"/>
		<path id="XMLID_108_" class="st1" d="M1047,445.5l0.7,0.4l-0.3-1l-35.3-122.6l-148.3,17.3C862.6,337.8,1034.9,438.4,1047,445.5z"
			/>
		<path id="XMLID_107_" class="st3" d="M1047.5,444.8c0.1,0.5,0.2,0.9,0.2,1.1c0,2.7,94.9-134.5,94.9-134.5l-130.5,10.9
			C1012.1,322.3,1044.7,432.9,1047.5,444.8z"/>
		<path id="XMLID_106_" class="st4" d="M1221,156.8c0,0.9-78.3,154.5-78.3,154.5l138.8-51.8L1221,156.8z"/>
		<polygon id="XMLID_105_" class="st3" points="1372.9,225.9 1221,156.8 1281.5,259.6 		"/>
		<polygon id="XMLID_104_" class="st4" points="1372.9,225.9 1372.9,224.7 1372.9,134.1 1221,156.8 1372.9,225.9 		"/>
		<polygon id="XMLID_103_" class="st1" points="1133.1,226.8 1012.1,322.3 1142.6,311.4 1221,156.8 		"/>
		<polygon id="XMLID_102_" class="st4" points="863.8,339.6 1012.1,322.3 932.6,246.8 		"/>
		<polygon id="XMLID_101_" class="st4" points="932.6,246.8 616.9,264.1 863.8,339.6 		"/>
		<polygon id="XMLID_100_" class="st2" points="1012.1,322.3 1133.1,226.8 932.6,246.8 		"/>
		<polygon id="XMLID_99_" class="st1" points="932.6,246.8 1133.1,226.8 1032.3,45 		"/>
		<polygon id="XMLID_98_" class="st4" points="775.9,255 932.6,246.8 1032.3,45 		"/>
		<polygon id="XMLID_97_" class="st4" points="682.2,139.6 616.9,264.1 775.9,255 		"/>
		<polygon id="XMLID_96_" class="st1" points="682.2,139.6 775.9,255 914.8,140.5 		"/>
		<polygon id="XMLID_95_" class="st2" points="456.7,117.8 616.9,264.1 682.2,139.6 		"/>
		<path id="XMLID_94_" class="st2" d="M1133.1,226.8l87.8-70c0,0-183.6-107.9-188.7-111.8L1133.1,226.8z"/>
		<path id="XMLID_93_" class="st3" d="M1221,156.8c0,0,19-236.3,19-240L1032.3,45L1221,156.8z"/>
		<path id="XMLID_92_" class="st1" d="M1221,156.8l151.9-183l-132.9-57C1240-79.5,1221,156.8,1221,156.8z"/>
		<polygon id="XMLID_91_" class="st4" points="1372.9,134.1 1372.9,133.8 1372.9,-25 1372.9,-26.2 1221,156.8 		"/>
		<polygon id="XMLID_90_" class="st5" points="-67.3,227 -67.3,267.8 29.5,284.1 		"/>
		<path id="XMLID_89_" class="st4" d="M56.8,116.9l-124-1.4V227l96.7,57.1C29.5,284.1,58,119.3,56.8,116.9z"/>
		<polygon id="XMLID_88_" class="st3" points="-67.3,115.4 56.8,116.9 -59.1,55 -67.3,50.6 		"/>
		<polygon id="XMLID_87_" class="st4" points="-67.3,-166.6 -67.3,-141.3 -22.7,-159.5 		"/>
		<polygon id="XMLID_86_" class="st5" points="-67.3,-141.3 -67.3,50.6 -59.1,55 -59,54.5 -22.7,-159.5 		"/>
		<polygon id="XMLID_85_" class="st4" points="-59.1,55 56.8,116.9 247.8,-10.4 		"/>
		<polygon id="XMLID_84_" class="st4" points="-37,-72.2 -59,54.5 -59.1,55 247.8,-10.4 		"/>
		<path id="XMLID_83_" class="st4" d="M247.8-10.4c0,0-52.3-28.7-110.9-60.9l0.2,0.3l-52.7-29.2c-56.3-30.9-105.7-58.2-107.1-59.3
			L-37-72.2L247.8-10.4z"/>
		<path id="XMLID_82_" class="st4" d="M1372.9-26.2v-186.6c0,1.2-132.9,129.7-132.9,129.7L1372.9-26.2z"/>
		<path id="XMLID_81_" class="st4" d="M-67.3-166.7c26.4,4.3,44.5,7.2,44.5,7.2l-3.2-208.4l-41.4,28V-166.7z"/>
		<polygon id="XMLID_80_" class="st1" points="247.8,-10.4 176.6,80.5 115,155.9 247.8,-10.4 56.8,116.9 114.9,155.9 304.8,184.1
			"/>
		<path id="XMLID_79_" class="st4" d="M773.2-49.2l-90.9,188.6c-0.1,0.1-0.1,0.2-0.1,0.2l232.6,0.9L1032.3,45L773.2-49.2z"/>
		<polygon id="XMLID_78_" class="st4" points="1240,-83.1 1178.3,-283.1 1032.3,45 		"/>
		<polygon id="XMLID_77_" class="st4" points="385.5,-128 251,-10.4 249.1,-11.4 247.8,-10.4 304.8,184.1 445.6,-180.1 		"/>
		<path id="XMLID_76_" class="st6" d="M816.2-254.6l0.5,1.2c0,0,0,0,0,0C816.5-253.8,816.3-254.2,816.2-254.6z"/>
		<polygon id="XMLID_75_" class="st4" points="84.3,-100.2 137.1,-71 136.9,-71.3 136.8,-71.5 135.5,-72.2 69.8,-188.6
			-25.9,-367.9 -22.7,-159.5 		"/>
		<polygon id="XMLID_74_" class="st4" points="251,-10.4 385.5,-128 135.5,-72.2 136.8,-71.5 249.1,-11.4 		"/>
		<polygon id="XMLID_73_" class="st4" points="304.8,184.1 456.7,117.8 445.6,-180.1 		"/>
		<path id="XMLID_72_" class="st3" d="M773.2-49.2L456.7,117.8l225.5,21.8c0,0,0-0.1,0.1-0.2C685.2,133.3,771.5-46.1,773.2-49.2z"/>
		<path id="XMLID_71_" class="st4" d="M816.2-254.6l-0.3-0.7c-0.1,0.2,0.2,0.9,0.8,1.9L816.2-254.6z"/>
		<path id="XMLID_70_" class="st4" d="M816.7-253.3C816.7-253.3,816.7-253.3,816.7-253.3c-0.6-1-0.9-1.7-0.8-1.9l-42.7,206
			c0,0,0,0,0,0l156.7,57L1032.3,45C1032.3,45,831-227.8,816.7-253.3z"/>
		<path id="XMLID_69_" class="st4" d="M1240-83.1c0,0,132.9-128.5,132.9-129.7l-194.6-70.3L1240-83.1z"/>
		<polygon id="XMLID_68_" class="st2" points="-67.3,-369.8 -67.3,-339.9 -25.9,-367.9 		"/>
		<polyline id="XMLID_67_" class="st4" points="-25.9,-367.9 69.8,-188.6 124.4,-439.5 		"/>
		<path id="XMLID_66_" class="st4" d="M124.4-439.5l14.8-68c12-60.4,27.6-137,31.7-148.7L-25.9-367.9"/>
		<polygon id="XMLID_65_" class="st5" points="773.2,-49.2 773.2,-49.2 445.6,-180.1 456.7,117.8 773.2,-49.2 		"/>
		<polygon id="XMLID_64_" class="st4" points="1032.3,45 898.2,-455.8 815.9,-255.2 		"/>
		<path id="XMLID_63_" class="st4" d="M1372.9-212.8v-1.2v-349.7c-6.3,19.4-194.6,280.6-194.6,280.6L1372.9-212.8z"/>
		<polygon id="XMLID_62_" class="st1" points="69.8,-188.6 135.5,-72.2 385.5,-128 		"/>
		<polygon id="XMLID_61_" class="st4" points="445.6,-180.1 69.8,-188.6 385.5,-128 		"/>
		<polygon id="XMLID_60_" class="st4" points="1032.3,45 1178.3,-283.1 952.8,-257.7 		"/>
		<polygon id="XMLID_59_" class="st4" points="-67.3,-384.5 -67.3,-369.8 -25.9,-367.9 		"/>
		<path id="XMLID_58_" class="st4" d="M773.2-49.2L773.2-49.2C773.2-49.2,773.2-49.2,773.2-49.2l42.7-206L589.6-123.1L773.2-49.2z"
			/>
		<polygon id="XMLID_57_" class="st5" points="-67.3,-569.4 -67.3,-384.5 -25.9,-367.9 		"/>
		<polyline id="XMLID_56_" class="st4" points="69.8,-188.6 445.6,-180.1 299.6,-298 		"/>
		<path id="XMLID_55_" class="st4" d="M299.6-298L124.4-432.2c0,0,0.4-2.3,1.2-6.3l-1.2-1L69.8-188.6"/>
		<polygon id="XMLID_54_" class="st4" points="1178.3,-283.1 898.2,-455.8 952.8,-257.7 		"/>
		<path id="XMLID_53_" class="st1" d="M898.2-455.8l280.1,172.7c0,0,188.3-261.3,194.6-280.6v-1.2l-115,24.9
			C1117.4-507.8,898.2-455.8,898.2-455.8z"/>
		<path id="XMLID_52_" class="st4" d="M-67.3-695.2v125.8l41.4,201.5L171-656.2c0.3-0.8,0.5-1.2,0.6-1.4L-67.3-695.2z"/>
		<polygon id="XMLID_51_" class="st4" points="815.9,-255.2 551.6,-441.3 445.6,-180.1 		"/>
		<polygon id="XMLID_50_" class="st4" points="589.6,-123.1 815.9,-255.2 445.6,-180.1 		"/>
		<polygon id="XMLID_49_" class="st4" points="815.9,-255.2 898.2,-455.8 551.6,-441.3 		"/>
		<path id="XMLID_48_" class="st1" d="M134.7-696.3h-202v1l238.9,37.6c0-0.1,0.1-0.1,0.1-0.1L134.7-696.3z"/>
		<path id="XMLID_47_" class="st4" d="M1372.9-696.3h-77.2l77.2,131.4V-214l117-162.1v-18.1c-25.3-36.6-117-169.7-117-174.4V-696.3z
			"/>
		<polygon id="XMLID_46_" class="st4" points="445.6,-180.1 551.6,-441.3 300.1,-297.6 		"/>
		<polygon id="XMLID_45_" class="st4" points="938.2,-696.3 898.2,-455.8 1154.5,-517.6 958.3,-696.3 		"/>
		<polygon id="XMLID_44_" class="st4" points="958.3,-696.3 1154.5,-517.6 1257.9,-540 1372.9,-564.9 987.5,-696.3 		"/>
		<path id="XMLID_43_" class="st4" d="M124.4-432.2L299.6-298l0.4,0.3l-128.2-360l-0.2-0.2c0,0-0.1,0.1-0.1,0.1
			c-0.2,0.2-0.4,0.6-0.6,1.4c-4.1,11.7-19.7,88.3-31.7,148.7c-6.1,30.8-11.3,57.4-13.6,69C124.9-434.4,124.4-432.2,124.4-432.2z"/>
		<path id="XMLID_42_" class="st3" d="M134.7-696.3l37,38.5l0.2,0.2c0,0,5.9-15.6,14.6-38.7H134.7z"/>
		<polyline id="XMLID_41_" class="st4" points="300.1,-297.6 551.6,-441.3 370.8,-544.3 		"/>
		<polyline id="XMLID_40_" class="st5" points="370.8,-544.3 171.9,-657.6 300.1,-297.6 		"/>
		<polygon id="XMLID_39_" class="st4" points="987.5,-696.3 1372.9,-564.9 1295.6,-696.3 		"/>
		<polygon id="XMLID_38_" class="st2" points="708.8,-696.3 371.3,-544.9 551.6,-441.3 724.9,-696.3 		"/>
		<polygon id="XMLID_37_" class="st3" points="320,-696.3 371.3,-544.9 708.8,-696.3 		"/>
		<polygon id="XMLID_36_" class="st5" points="724.9,-696.3 551.6,-441.3 898.2,-455.8 738.9,-696.3 		"/>
		<polygon id="XMLID_35_" class="st4" points="738.9,-696.3 898.2,-455.8 938.2,-696.3 		"/>
		<path id="XMLID_34_" class="st4" d="M186.5-696.3c-8.7,23-14.6,38.7-14.6,38.7l199.4,112.7c0,0-25.1-73.2-51.7-151.4H186.5z"/>
		<polygon id="XMLID_33_" class="st3" points="429.1,574.4 516,575 722.5,535 512.5,574.1 		"/>
		<polygon id="XMLID_32_" class="st1" points="1193.4,535.2 959.9,567.7 722.5,535 959.9,571.3 1193.4,535.2 		"/>
		<path id="XMLID_31_" class="st7" d="M279.7,639.1l-21.7-64.2l-0.1,0c2,6.5,10.2,31.1,21.3,64.2H279.7z"/>
		<polygon id="XMLID_30_" class="st1" points="-67.3,547.9 -67.3,639.1 20.3,639.1 		"/>
		<polygon id="XMLID_29_" class="st4" points="1372.9,639.1 1372.9,555.1 1211.5,615 1225.6,639.1 		"/>
		<path id="XMLID_28_" class="st1" d="M-67.3,536.8v11.1l87.6,91.1h211.2c12.2-31.9,22.2-57.8,25-64.3L-67.3,536.8z"/>
		<polygon id="XMLID_27_" class="st3" points="727.2,639.1 722.5,535 516,575 596.2,639.1 		"/>
		<polygon id="XMLID_26_" class="st4" points="1225.6,639.1 1211.5,615 1160.3,639.1 		"/>
		<polygon id="XMLID_25_" class="st1" points="959.9,571.3 1211.5,615 1193.4,535.2 		"/>
		<polygon id="XMLID_24_" class="st4" points="257.9,573.4 257.9,573.4 257.8,573.2 257.8,573.2 		"/>
		<polygon id="XMLID_23_" class="st4" points="596.2,639.1 516,575 429.1,574.4 262.2,575 436.6,639.1 		"/>
		<polygon id="XMLID_22_" class="st1" points="872.4,639.1 959.9,571.3 722.5,535 727.2,639.1 		"/>
		<polygon id="XMLID_21_" class="st1" points="436.6,639.1 262.2,575 258.5,575 257.9,574.9 279.7,639.1 		"/>
		<polygon id="XMLID_20_" class="st8" points="257.9,573.4 258.5,575 257.9,573.4 		"/>
		<polygon id="XMLID_19_" class="st3" points="1160.3,639.1 1211.5,615 959.9,571.3 952.4,639.1 		"/>
		<polygon id="XMLID_18_" class="st4" points="952.4,639.1 959.9,571.3 872.4,639.1 		"/>
		<polygon id="XMLID_17_" class="st3" points="918.8,535 843.6,475 722.5,535 959.9,567.7 		"/>
		<polygon id="XMLID_16_" class="st4" points="474.6,535 352.3,408.6 281.1,535 258.5,575 262.2,575 429.1,574.4 512.5,574.1 		"/>
		<polygon id="XMLID_2_" class="st4" points="257.8,573.2 242.6,535 214.6,464.7 73.8,507.1 149.6,535 258.5,575 257.9,573.4 		"/>
		<path id="XMLID_1_" class="st4" d="M279.1,639.1c-11.2-33.1-19.4-57.6-21.3-64.2l0.1,0l0.6,0.1l-108.9-40l-75.9-27.9l-141,25.1
			v4.6l323.8,37.9c-2.8,6.5-12.8,32.4-25,64.3H279.1z"/>
	</g>
</g>
</svg>
