<?xml version="1.0" encoding="utf-8"?>
<!-- Generator: Adobe Illustrator 19.0.0, SVG Export Plug-In . SVG Version: 6.00 Build 0)  -->
<svg version="1.1" id="Layer_1" xmlns="http://www.w3.org/2000/svg" xmlns:xlink="http://www.w3.org/1999/xlink" x="0px" y="0px"
	 viewBox="0 0 40 40" style="enable-background:new 0 0 40 40;" xml:space="preserve">
<style type="text/css">
	.st0{fill:#444444;}
</style>
<path class="st0" d="M33.2,36h-2c0-0.2,0-0.3,0-0.5C31.2,29.1,26,24,19.7,24c-6.4,0-11.5,5.1-11.5,11.5c0,0.2,0,0.3,0,0.5h-2
	c0-5.8,3.6-10.7,8.6-12.6c-3.2-1.7-5.4-5.1-5.4-9.1C9.4,8.6,14,4,19.7,4C25.4,4,30,8.6,30,14.3c0,3.9-2.2,7.3-5.4,9.1
	C29.6,25.3,33.2,30.2,33.2,36z M27.8,14.3c0-4.5-3.6-8.1-8.1-8.1s-8.1,3.6-8.1,8.1s3.6,8.1,8.1,8.1C24.1,22.4,27.8,18.8,27.8,14.3z"
	/>
</svg>
